<svg width="29" height="29" viewBox="0 0 29 29" fill="none" xmlns="http://www.w3.org/2000/svg">
<path d="M0 14.125C0 6.32398 6.32398 0 14.125 0C21.926 0 28.25 6.32398 28.25 14.125C28.25 21.926 21.926 28.25 14.125 28.25C6.32398 28.25 0 21.926 0 14.125Z" fill="#3D6799"/>
<path d="M14.8639 18.7605C14.8639 18.7605 15.1358 18.7308 15.2751 18.584C15.4026 18.4494 15.3982 18.1955 15.3982 18.1955C15.3982 18.1955 15.3812 17.01 15.942 16.8349C16.4947 16.6627 17.2043 17.9814 17.9575 18.4885C18.5264 18.8719 18.9582 18.7879 18.9582 18.7879L20.9707 18.7605C20.9707 18.7605 22.023 18.6968 21.5241 17.8845C21.4828 17.8179 21.233 17.2834 20.0282 16.1853C18.7658 15.0359 18.9353 15.2218 20.4548 13.2334C21.3804 12.0225 21.7503 11.2832 21.6346 10.9671C21.5248 10.6647 20.8439 10.745 20.8439 10.745L18.5787 10.7588C18.5787 10.7588 18.4107 10.7363 18.2861 10.8094C18.1645 10.881 18.0857 11.0481 18.0857 11.0481C18.0857 11.0481 17.7275 11.9849 17.2493 12.782C16.2405 14.463 15.8374 14.552 15.6723 14.4479C15.2884 14.2041 15.3842 13.4699 15.3842 12.9484C15.3842 11.3186 15.6362 10.6394 14.8941 10.4636C14.648 10.4051 14.4667 10.3667 13.8366 10.3602C13.0283 10.3523 12.3444 10.3631 11.9568 10.549C11.6989 10.6727 11.4999 10.949 11.6215 10.9649C11.7711 10.9845 12.1101 11.0546 12.2899 11.2948C12.522 11.6051 12.5139 12.301 12.5139 12.301C12.5139 12.301 12.6473 14.2193 12.2022 14.4573C11.8971 14.6207 11.4785 14.2873 10.5788 12.7617C10.1182 11.9805 9.77037 11.1168 9.77037 11.1168C9.77037 11.1168 9.70331 10.9555 9.58319 10.8687C9.43802 10.7638 9.23537 10.7313 9.23537 10.7313L7.08285 10.745C7.08285 10.745 6.75935 10.7537 6.64071 10.8919C6.53533 11.0141 6.6326 11.268 6.6326 11.268C6.6326 11.268 8.31792 15.1387 10.2265 17.0895C11.9767 18.8776 13.9634 18.7605 13.9634 18.7605H14.8639Z" fill="white"/>
</svg>
