<svg width="29" height="29" viewBox="0 0 29 29" fill="none" xmlns="http://www.w3.org/2000/svg">
<path d="M14.7939 28.25C22.595 28.25 28.9189 21.926 28.9189 14.125C28.9189 6.32398 22.595 0 14.7939 0C6.99292 0 0.668945 6.32398 0.668945 14.125C0.668945 21.926 6.99292 28.25 14.7939 28.25Z" fill="#25D366"/>
<path fill-rule="evenodd" clip-rule="evenodd" d="M15.2595 21.9834H15.2561C13.8504 21.9829 12.4691 21.6302 11.2423 20.9611L6.78979 22.1291L7.98137 17.7767C7.24635 16.5029 6.85958 15.058 6.86021 13.5777C6.86206 8.94674 10.6299 5.17908 15.2595 5.17908C17.5063 5.18005 19.6152 6.05475 21.2009 7.64237C22.7867 9.2299 23.6595 11.3401 23.6587 13.5843C23.6568 18.2143 19.8904 21.9815 15.2595 21.9834ZM11.4486 19.4406L11.7035 19.5919C12.7754 20.2279 14.004 20.5645 15.2567 20.565H15.2596C19.1073 20.565 22.239 17.4332 22.2405 13.5839C22.2412 11.7185 21.5158 9.9646 20.1978 8.64504C18.8797 7.32547 17.1269 6.59841 15.2623 6.59777C11.4116 6.59777 8.27986 9.7292 8.27834 13.5782C8.27779 14.8973 8.64688 16.182 9.34569 17.2935L9.51168 17.5576L8.80644 20.1337L11.4486 19.4406ZM19.2035 15.3927C19.3499 15.4634 19.4488 15.5112 19.491 15.5817C19.5434 15.6692 19.5434 16.0894 19.3686 16.5797C19.1937 17.0699 18.3552 17.5173 17.952 17.5775C17.5905 17.6316 17.1329 17.6541 16.6302 17.4944C16.3254 17.3977 15.9345 17.2685 15.4338 17.0523C13.4663 16.2027 12.1367 14.2959 11.8854 13.9355C11.8678 13.9102 11.8555 13.8925 11.8486 13.8834L11.8469 13.8811C11.7359 13.7329 10.9917 12.74 10.9917 11.7124C10.9917 10.7457 11.4665 10.239 11.6851 10.0058C11.7001 9.98977 11.7139 9.97508 11.7262 9.96161C11.9186 9.7515 12.1459 9.69897 12.2858 9.69897C12.4257 9.69897 12.5658 9.70026 12.6881 9.7064C12.7032 9.70716 12.7189 9.70707 12.7351 9.70697C12.8574 9.70626 13.0099 9.70536 13.1603 10.0667C13.2181 10.2057 13.3028 10.4118 13.3921 10.6293C13.5727 11.0689 13.7722 11.5547 13.8073 11.6249C13.8598 11.73 13.8948 11.8525 13.8248 11.9926C13.8143 12.0136 13.8046 12.0335 13.7953 12.0524C13.7428 12.1597 13.7041 12.2386 13.615 12.3427C13.5799 12.3837 13.5436 12.4278 13.5074 12.4719C13.4352 12.5599 13.363 12.6478 13.3001 12.7104C13.1951 12.8151 13.0857 12.9286 13.2081 13.1387C13.3306 13.3488 13.7517 14.036 14.3756 14.5925C15.0463 15.1907 15.6292 15.4436 15.9246 15.5717C15.9823 15.5968 16.0291 15.617 16.0634 15.6342C16.2731 15.7393 16.3956 15.7217 16.518 15.5817C16.6404 15.4416 17.0426 14.9688 17.1825 14.7588C17.3224 14.5487 17.4624 14.5837 17.6547 14.6537C17.8471 14.7238 18.8789 15.2315 19.0888 15.3365C19.1297 15.357 19.168 15.3755 19.2035 15.3927Z" fill="#FDFDFD"/>
</svg>
